# xmcd
#
# Track frame offsets:
# 150
# 17279
# 33881
# 46388
# 65478
# 82315
# 103066
# 124893
# 136477
# 150107
# 160863
# 174689
# 190370
# 201892
# 223439
# 238260
# 251566
# 264042
# 276518
# 295234
# 309220
#
# Disc length: 4321 seconds
#
#
# Revision: 0
# Processed by: cddbd v1.5.2PL0 Copyright (c) Steve Scherf et al.
# Submitted via: FreeRIP 2.951 
#
DISCID=3410df15
DTITLE=The Pogues - The Very Best Of
DYEAR=2001
DGENRE=Country
TTITLE0=Dirty Old Town
TTITLE1=The Irish Rover
TTITLE2=Sally McLennane
TTITLE3=Fiesta
TTITLE4=A Pair Of Brown Eyes
TTITLE5=Fairytale Of New York
TTITLE6=The Body Of an American
TTITLE7=Streams Of Whiskey
TTITLE8=The Sick Bed Of Cuchulainn
TTITLE9=If I Should Fall From Grace With God
TTITLE10=Misty Morning, Albert Bridge
TTITLE11=Rain Street
TTITLE12=White City
TTITLE13=A Rainy Night In Soho
TTITLE14=London Girl
TTITLE15=Boys From The County Hell
TTITLE16=The Sunnyside Of The Street
TTITLE17=Summer In Siam
TTITLE18=Hell's Ditch
TTITLE19=The Old Man Drag
TTITLE20=The Band Played Waltzing Matilda
EXTD=
EXTT0=
EXTT1=
EXTT2=
EXTT3=
EXTT4=
EXTT5=
EXTT6=
EXTT7=
EXTT8=
EXTT9=
EXTT10=
EXTT11=
EXTT12=
EXTT13=
EXTT14=
EXTT15=
EXTT16=
EXTT17=
EXTT18=
EXTT19=
EXTT20=
PLAYORDER=
